<svg width="178" height="79" viewBox="0 0 178 79" fill="none" xmlns="http://www.w3.org/2000/svg">
<g clip-path="url(#clip0_5_52)">
<path d="M118.985 30.0053C117.258 19.5729 124.313 9.71616 134.745 7.98275C145.178 6.25574 155.034 13.3109 156.768 23.7433C158.495 34.1758 151.44 44.0325 141.007 45.7659C130.575 47.4865 120.718 40.4378 118.985 30.0053Z" fill="#8FC31F"/>
<path d="M127.338 17.3405L144.877 14.4302C146.195 14.2127 146.956 14.6861 147.148 15.863L150.186 34.2205C150.391 35.455 149.834 36.1841 148.51 36.408L130.971 39.3183C129.654 39.5358 128.886 39.0241 128.682 37.7896L125.643 19.4321C125.451 18.2552 126.014 17.558 127.338 17.3405ZM141.353 35.8643C140.86 35.8643 140.284 35.7876 139.638 35.6405C139.152 35.5637 138.871 35.3206 138.801 34.8857C138.73 34.2525 138.935 33.8751 139.427 33.7599C139.491 33.7471 139.613 33.7535 139.786 33.7791C140.668 33.971 141.244 34.0478 141.506 34.003C142.037 33.9198 142.261 33.6384 142.184 33.1779L141.986 31.9881L135.941 32.9924C136.204 33.1395 136.434 33.2674 136.645 33.3889C136.869 33.5361 137.176 33.7663 137.547 34.0798C137.643 34.2525 137.707 34.4379 137.745 34.6362C137.828 35.1607 137.572 35.4742 136.984 35.5765C136.671 35.6277 136.396 35.6149 136.165 35.5381C135.884 35.2759 135.647 35.0776 135.455 34.9433C135.27 34.8409 135.084 34.7322 134.892 34.6298C134.656 34.4124 134.515 34.1949 134.477 33.9582C134.425 33.664 134.47 33.4145 134.611 33.2226L131.291 33.7727C130.76 33.8623 130.453 33.6128 130.357 33.0371C130.268 32.4935 130.485 32.1736 131.016 32.0905L141.717 30.3123L141.449 28.6812C137.847 29.4808 134.374 30.2164 131.023 30.8944C130.498 30.9839 130.185 30.7217 130.082 30.1076C129.999 29.5959 130.217 29.2889 130.741 29.1866C132.871 28.8156 134.88 28.4574 136.773 28.112L136.619 27.1973L131.963 27.9712C131.035 28.1248 130.498 27.7346 130.345 26.8135L129.775 23.3723C129.628 22.496 130.018 21.9843 130.946 21.8308L135.602 21.0568L135.474 20.2892L129.724 21.2423C129.2 21.3319 128.886 21.1016 128.797 20.5579C128.707 20.027 128.931 19.72 129.455 19.6368L135.206 18.6838L135.059 17.7947L128.618 18.8629C127.952 18.9716 127.684 19.3938 127.805 20.1165L130.517 36.4912C130.645 37.2651 131.042 37.5977 131.701 37.489L141.353 35.8643ZM131.605 24.0375L135.967 23.3147L135.839 22.5472L131.777 23.2188C131.579 23.2508 131.502 23.3915 131.541 23.6409L131.605 24.0375ZM136.357 25.7261L136.191 24.7091L131.829 25.4319L131.912 25.9244C131.969 26.2698 132.097 26.4297 132.295 26.3978L136.357 25.7261ZM147.244 34.8857C147.903 34.777 148.171 34.3356 148.043 33.5553L145.331 17.1806C145.21 16.4514 144.819 16.1444 144.161 16.2532L136.926 17.4493L137.074 18.3384L143.515 17.2702C144.039 17.1806 144.353 17.4045 144.436 17.929C144.525 18.4727 144.308 18.7861 143.777 18.8757L137.336 19.9438L137.464 20.7114L142.517 19.8735C143.508 19.7072 144.071 20.0654 144.218 20.9417L144.788 24.3829C144.89 24.9778 144.756 25.4191 144.397 25.6942C144.685 25.8988 144.941 26.1099 145.165 26.3338C145.459 26.5705 145.843 26.9606 146.323 27.4915C146.419 27.6642 146.483 27.8561 146.521 28.0736C146.61 28.5981 146.355 28.9179 145.76 29.0139C145.466 29.065 145.19 29.0394 144.935 28.9499C144.672 28.5853 144.448 28.2783 144.276 28.0352C144.244 28.0416 144.212 28.048 144.173 28.0544C143.879 28.1184 143.585 28.1887 143.291 28.2527L143.579 29.9861L146.054 29.5767C146.585 29.4872 146.892 29.7175 146.981 30.2611C147.077 30.8368 146.86 31.1694 146.335 31.259L143.86 31.6683L144.186 33.6512C144.34 34.5787 143.988 35.2119 143.124 35.5573L147.244 34.8857ZM137.72 22.2401L137.847 23.0077L142.702 22.2018L142.632 21.8052C142.594 21.5557 142.44 21.4534 142.178 21.4982L137.72 22.2401ZM142.702 24.6707C142.965 24.626 143.073 24.4277 143.016 24.0823L142.933 23.5898L138.078 24.3957L138.244 25.4127L142.702 24.6707ZM143.131 26.7879C143.06 26.6664 143.016 26.5513 142.997 26.4297C142.977 26.3146 142.977 26.2123 142.997 26.1291L138.487 26.8775L138.628 27.7154C140.214 27.402 141.717 27.0886 143.131 26.7879Z" fill="white"/>
<path d="M122.266 66.5732C118.933 61.0723 120.686 53.9148 126.187 50.5824C131.688 47.2499 138.845 49.0025 142.178 54.5033C145.51 60.0042 143.758 67.1617 138.257 70.4942C132.762 73.8266 125.598 72.0677 122.266 66.5732Z" fill="#26B7BC"/>
<path d="M119.72 57.4711C120.539 54.1322 122.611 51.3114 125.547 49.5268C126.404 49.0087 127.313 48.6058 128.24 48.2987C128.483 47.2753 128.694 46.2391 128.854 45.1901C123.11 42.3693 118.857 36.9197 117.744 30.2035C116.842 24.7602 118.198 19.4577 121.121 15.2425C113.951 5.97418 102.719 0 90.0924 0C68.4344 0 50.8765 17.5579 50.8765 39.2159C50.8765 60.8739 68.4344 78.4319 90.0924 78.4319C102.086 78.4319 112.812 73.0462 120.008 64.5646C119.253 62.2939 119.138 59.8505 119.72 57.4711Z" fill="#EA545D"/>
<path d="M125.324 57.7396L133.492 52.7889C134.106 52.4179 134.579 52.501 134.912 53.0447L140.093 61.5902C140.438 62.1659 140.31 62.6392 139.696 63.0166L131.528 67.9674C130.914 68.3384 130.434 68.236 130.082 67.6604L124.901 59.1148C124.569 58.5712 124.709 58.1106 125.324 57.7396ZM136.005 64.1744C135.762 64.2703 135.462 64.3471 135.104 64.4046C134.848 64.4622 134.656 64.3918 134.534 64.1935C134.368 63.8929 134.4 63.6626 134.624 63.5091C134.656 63.4899 134.72 63.4708 134.809 63.4452C135.283 63.362 135.59 63.2853 135.711 63.2149C135.961 63.0678 136.018 62.8823 135.884 62.6712L135.545 62.1147L132.73 63.8226C132.89 63.8417 133.031 63.8609 133.159 63.8801C133.3 63.9057 133.498 63.9633 133.748 64.04C133.824 64.104 133.895 64.1871 133.952 64.2767C134.099 64.5198 134.035 64.7308 133.76 64.8971C133.613 64.9867 133.472 65.0315 133.345 65.0443C133.153 64.9675 132.993 64.9163 132.871 64.8907C132.756 64.8779 132.641 64.8588 132.526 64.846C132.366 64.7884 132.251 64.7052 132.18 64.5965C132.097 64.4558 132.072 64.3279 132.104 64.2063L130.562 65.1402C130.313 65.2873 130.108 65.2297 129.948 64.9611C129.795 64.7116 129.839 64.507 130.089 64.3535L135.072 61.3344L134.611 60.5732C132.974 61.6926 131.387 62.7544 129.852 63.7586C129.603 63.9057 129.398 63.8353 129.225 63.5539C129.078 63.3172 129.129 63.119 129.372 62.959C130.357 62.3514 131.291 61.7693 132.161 61.2192L131.899 60.7971L129.731 62.1083C129.302 62.3706 128.95 62.2874 128.694 61.8525L127.722 60.247C127.473 59.844 127.569 59.5114 127.997 59.2492L130.166 57.9379L129.948 57.5797L127.268 59.2044C127.025 59.3515 126.827 59.3067 126.673 59.0509C126.526 58.8078 126.571 58.6095 126.82 58.456L129.5 56.8314L129.244 56.4156L126.245 58.2322C125.938 58.4177 125.886 58.6799 126.091 59.0189L130.709 66.6433C130.927 67.0015 131.189 67.0911 131.502 66.9056L136.005 64.1744ZM128.784 60.2278L130.818 58.9997L130.6 58.6415L128.707 59.7865C128.611 59.844 128.605 59.9272 128.675 60.0423L128.784 60.2278ZM131.496 60.1191L131.208 59.6457L129.181 60.8738L129.321 61.1041C129.417 61.264 129.513 61.3216 129.609 61.264L131.496 60.1191ZM138.749 62.5113C139.056 62.3258 139.101 62.0508 138.884 61.6926L134.266 54.0681C134.061 53.7291 133.805 53.6524 133.498 53.8379L130.134 55.8783L130.383 56.2941L133.383 54.4775C133.632 54.3304 133.824 54.3752 133.978 54.6246C134.131 54.8805 134.087 55.0788 133.837 55.2259L130.837 57.0424L131.055 57.4006L133.409 55.9743C133.869 55.6928 134.221 55.7568 134.47 56.1597L135.443 57.7652C135.615 58.0403 135.634 58.2833 135.506 58.5008C135.692 58.5456 135.865 58.5967 136.018 58.6607C136.216 58.7247 136.485 58.8398 136.831 59.0061C136.914 59.0701 136.984 59.1532 137.048 59.2556C137.195 59.505 137.131 59.7097 136.856 59.876C136.715 59.9592 136.575 60.0039 136.434 60.0039C136.229 59.8696 136.063 59.7673 135.922 59.6841C135.903 59.6969 135.89 59.7033 135.871 59.7097C135.737 59.7993 135.602 59.8952 135.475 59.9848L135.961 60.7907L137.118 60.0935C137.368 59.9464 137.56 59.9975 137.713 60.247C137.88 60.5156 137.835 60.7267 137.592 60.8738L136.434 61.571L136.997 62.4921C137.259 62.9207 137.208 63.3108 136.85 63.6562L138.749 62.5113ZM131.477 58.1042L131.694 58.4624L133.952 57.0936L133.843 56.9081C133.773 56.793 133.677 56.7738 133.556 56.8442L131.477 58.1042ZM134.445 58.3281C134.566 58.2513 134.579 58.1362 134.483 57.9699L134.342 57.7396L132.084 59.1085L132.366 59.5818L134.445 58.3281ZM135.084 59.2939C135.02 59.2428 134.976 59.1916 134.944 59.1404C134.918 59.0893 134.892 59.0381 134.886 58.9869L132.788 60.2598L133.025 60.65C133.754 60.183 134.438 59.7225 135.084 59.2939Z" fill="white"/>
<path d="M151.018 44.4227C155.904 37.8409 165.205 36.4657 171.786 41.3525C178.368 46.2393 179.743 55.5396 174.857 62.1214C169.97 68.7032 160.67 70.0784 154.088 65.1916C147.506 60.3048 146.131 51.0109 151.018 44.4227Z" fill="#EB6EA5"/>
<path d="M162.505 42.6636L173.078 50.5119C173.878 51.1068 174.012 51.7528 173.494 52.4628L165.275 63.5285C164.718 64.2768 164.047 64.3536 163.247 63.7651L152.668 55.9168C151.875 55.322 151.753 54.6568 152.31 53.9084L160.529 42.8427C161.047 42.1327 161.706 42.0752 162.505 42.6636ZM159.851 59.6651C159.601 59.4028 159.339 59.0574 159.083 58.6353C158.872 58.341 158.859 58.066 159.058 57.8038C159.358 57.4392 159.665 57.356 159.979 57.5607C160.017 57.5863 160.075 57.6566 160.151 57.759C160.503 58.3283 160.753 58.6673 160.919 58.7888C161.239 59.0255 161.501 59.0063 161.706 58.7248L162.237 58.0084L158.591 55.3028C158.648 55.5139 158.699 55.7122 158.744 55.8785C158.776 56.0767 158.815 56.3518 158.84 56.7164C158.795 56.8571 158.731 56.985 158.642 57.1066C158.405 57.4264 158.105 57.452 157.746 57.1833C157.555 57.0426 157.427 56.8891 157.35 56.7228C157.343 56.4413 157.324 56.2111 157.299 56.0384C157.26 55.8849 157.222 55.7313 157.177 55.5778C157.171 55.3412 157.216 55.1493 157.324 55.0086C157.459 54.8295 157.606 54.7271 157.785 54.7015L155.783 53.2176C155.463 52.9809 155.437 52.6867 155.693 52.3413C155.936 52.0151 156.218 51.9639 156.538 52.2006L162.991 56.9914L163.721 56.0064C161.444 54.4968 159.262 53.0257 157.177 51.5865C156.857 51.3499 156.832 51.0492 157.107 50.6782C157.337 50.3712 157.619 50.3264 157.945 50.5567C159.237 51.5034 160.458 52.3861 161.623 53.2176L162.032 52.6675L159.224 50.5823C158.668 50.1665 158.597 49.6804 159.013 49.1239L160.554 47.0515C160.945 46.5206 161.418 46.4694 161.974 46.8788L164.782 48.964L165.128 48.4971L161.661 45.9258C161.341 45.6891 161.309 45.4077 161.552 45.0814C161.789 44.7616 162.064 44.7232 162.384 44.9599L165.851 47.5312L166.247 46.9939L162.365 44.1092C161.968 43.815 161.603 43.8853 161.277 44.3203L153.953 54.1898C153.608 54.6568 153.634 55.0405 154.03 55.3348L159.851 59.6651ZM162.684 51.7848L163.139 51.1708L160.51 49.2199L160.286 49.5205C160.132 49.7316 160.113 49.8787 160.228 49.9682L162.684 51.7848ZM163.407 62.3004C163.804 62.5946 164.175 62.5115 164.52 62.0445L171.85 52.175C172.177 51.74 172.138 51.369 171.742 51.0748L167.379 47.8383L166.983 48.3756L170.865 51.2603C171.185 51.497 171.23 51.7784 170.993 52.0918C170.75 52.418 170.469 52.4692 170.149 52.2325L166.266 49.3478L165.921 49.8083L168.972 52.0726C169.567 52.514 169.669 53.0001 169.279 53.531L167.738 55.6034C167.469 55.9616 167.168 56.1151 166.836 56.0703C166.874 56.3262 166.893 56.5757 166.887 56.8059C166.912 57.0874 166.906 57.4903 166.868 58.0148C166.829 58.1556 166.759 58.2899 166.663 58.4178C166.426 58.7376 166.126 58.7632 165.774 58.4946C165.595 58.3602 165.46 58.2003 165.384 58.0212C165.441 57.6886 165.492 57.42 165.531 57.2025C165.512 57.1897 165.486 57.1769 165.467 57.1577C165.288 57.0362 165.096 56.9147 164.91 56.7931L164.13 57.8357L165.627 58.9423C165.947 59.179 165.979 59.4604 165.735 59.7866C165.48 60.1384 165.192 60.1896 164.872 59.9593L163.382 58.8464L162.493 60.0425C162.077 60.599 161.559 60.7397 160.932 60.4582L163.407 62.3004ZM161.13 48.3883L163.759 50.3392L164.104 49.8787L161.655 48.0621C161.533 47.9726 161.424 48.0046 161.309 48.1517L161.13 48.3883ZM165.601 55.9424C165.627 55.8401 165.671 55.7569 165.723 55.6866C165.774 55.6162 165.825 55.565 165.883 55.5267L163.164 53.5118L162.787 54.0171C163.778 54.7015 164.712 55.3476 165.601 55.9424ZM166.509 54.6248C166.669 54.7399 166.829 54.6951 166.983 54.4905L167.2 54.1898L164.271 52.0151L163.817 52.6291L166.509 54.6248ZM165.237 50.7166L164.891 51.1835L167.821 53.3519L168 53.1152C168.108 52.9681 168.083 52.8338 167.923 52.7123L165.237 50.7166Z" fill="white"/>
<path d="M10.3429 26.1033C11.7501 26.1033 12.4537 26.6854 12.4537 27.8431C12.4537 28.0862 12.3833 28.4252 12.2426 28.8473C11.3279 34.265 10.1446 38.9855 8.70541 42.996C7.40056 46.9042 5.91021 50.4222 4.22158 53.5564C3.58834 53.9785 2.95511 54.1896 2.32187 54.1896C0.773957 54.1896 0 53.486 0 52.0788C0 51.7974 0.140719 51.324 0.422158 50.6524C2.11079 47.6589 3.60753 44.3201 4.91239 40.623C6.31958 36.7852 7.5029 32.3013 8.44956 27.1651C8.62226 26.4551 9.2555 26.1033 10.3429 26.1033ZM24.7026 16.4448C26.2506 16.4448 27.0245 17.1292 27.0245 18.5044V58.6223C27.0245 62.4217 24.773 64.3214 20.27 64.3214C18.0185 64.3214 14.9866 63.6882 11.1872 62.4217C10.0614 62.0699 9.49856 61.3663 9.49856 60.3109C9.53054 58.8333 10.1638 58.0594 11.3983 57.989C11.7181 57.989 12.1914 58.0786 12.8247 58.2513C16.413 59.3387 18.7541 59.8887 19.8478 59.8887C21.6772 59.8887 22.5919 58.9933 22.5919 57.1959V18.5044C22.5919 17.1292 23.2955 16.4448 24.7026 16.4448ZM38.6403 26.3144C39.3439 26.3144 39.9771 26.5958 40.54 27.1587C43.7062 34.0539 46.3798 41.8127 48.561 50.435C48.8424 51.0682 48.9831 51.6822 48.9831 52.2835C48.9831 53.55 47.9981 54.1832 46.028 54.1832C45.1837 54.1832 44.5505 53.6395 44.1283 52.5457C41.8384 42.6954 39.3758 34.8599 36.7342 29.0584C36.5934 28.5275 36.5231 28.1245 36.5231 27.8431C36.5295 26.8261 37.2331 26.3144 38.6403 26.3144Z" fill="#EA545D"/>
<path d="M70.9929 52.552C71.6581 52.552 72.2593 52.7119 72.7902 53.0253C73.2828 53.3451 73.5322 53.7289 73.5322 54.1831C73.5322 54.4645 73.4619 54.8163 73.3211 55.2385C71.8756 58.2319 70.2637 60.8353 68.4663 63.0484C67.9034 63.6496 67.2702 63.9439 66.5666 63.9439C65.1594 63.9439 64.4558 63.3618 64.4558 62.2041C64.4558 61.7116 64.5262 61.3598 64.6669 61.1487C66.2532 59.1786 67.8715 56.6457 69.5281 53.5498C69.7264 52.8846 70.2189 52.552 70.9929 52.552ZM69.9375 16.6558H80.0757C82.6086 16.6558 83.8751 17.8327 83.8751 20.1929V48.1193C83.8751 50.6203 82.6086 51.8676 80.0757 51.8676H69.9375C67.5452 51.8676 66.3491 50.6203 66.3491 48.1193V20.1929C66.3427 17.8391 67.5388 16.6558 69.9375 16.6558ZM70.3596 26.7364H79.8582V21.8816C79.8582 21.0373 79.3657 20.6151 78.3806 20.6151H71.6261C70.7818 20.6151 70.3596 21.0373 70.3596 21.8816V26.7364ZM70.3596 36.9258H79.8582V30.5358H70.3596V36.9258ZM78.3806 47.8571C79.3657 47.8571 79.8582 47.3646 79.8582 46.3795V40.6804H70.3596V46.3795C70.3596 47.3646 70.7818 47.8571 71.6261 47.8571H78.3806ZM78.5917 52.7631C79.225 52.7631 79.7878 53.0253 80.2804 53.5562C81.2334 54.925 82.0074 56.4794 82.6022 58.2C82.7429 58.8012 82.8133 59.3641 82.8133 59.8886C82.8133 61.0463 82.0393 61.6284 80.4914 61.6284C79.7495 61.6284 79.1866 61.1167 78.8028 60.0997C78.2079 58.0912 77.5683 56.473 76.9031 55.2449C76.7624 54.7907 76.692 54.4389 76.692 54.1895C76.692 53.2364 77.3252 52.7631 78.5917 52.7631ZM112.377 16.8668C113.644 16.8668 114.277 17.5001 114.277 18.7666C114.277 20.1418 113.644 20.8262 112.377 20.8262H93.5847C92.3183 20.8262 91.685 21.4594 91.685 22.7259V28.425H109.844C111.533 28.425 112.377 29.4804 112.377 31.5912C112.377 32.7873 112.115 34.3864 111.584 36.3949C110.599 39.9128 109.384 43.1558 107.944 46.1109C106.921 48.081 105.885 49.8591 104.829 51.439C105.424 52.2514 106.077 53.0253 106.78 53.7609C108.507 55.8013 110.861 57.8418 113.855 59.8822C114.558 60.4771 114.91 61.1295 114.91 61.8331C114.91 63.381 114.136 64.155 112.588 64.155C112.166 64.155 111.642 63.8927 111.008 63.3618C108.264 61.5325 105.942 59.5112 104.043 57.2917C103.378 56.5881 102.738 55.8461 102.143 55.0722C99.5013 58.4878 96.4247 61.3214 92.9067 63.5729C92.3055 63.9567 91.9025 64.155 91.6914 64.155C90.1435 64.155 89.3695 63.381 89.3695 61.8331C89.3695 60.9184 89.8621 60.2148 90.8535 59.7223C94.3715 57.1893 97.0451 54.7971 98.8745 52.5456C99.1176 52.1618 99.399 51.8036 99.7188 51.4902C98.9768 50.2941 98.2924 49.0084 97.6592 47.6332C96.0729 44.1472 94.6465 39.0301 93.3801 32.2756H91.6914V38.5568C91.6914 44.7165 91.1285 50.1022 90.0028 54.7076C89.1201 57.9825 88.0007 60.8289 86.6255 63.2595C86.2737 64.1038 85.7108 64.5259 84.9369 64.5259C83.4593 64.4556 82.6854 63.752 82.615 62.4152C84.2333 58.2639 85.4678 54.5668 86.3121 51.3303C87.2268 47.4605 87.6873 43.2006 87.6873 38.5568V20.6151C87.6873 18.1205 88.9538 16.8668 91.4867 16.8668H112.377ZM102.399 47.5373C103.064 46.4115 103.717 45.2346 104.35 44.0001C105.725 41.077 106.742 38.2626 107.407 35.5569C107.759 34.3224 107.938 33.4973 107.938 33.0752C107.938 32.5443 107.797 32.282 107.516 32.282H97.2754C98.3308 37.4566 99.5973 41.6782 101.075 44.9532C101.465 45.8678 101.906 46.7313 102.399 47.5373Z" fill="white"/>
</g>
<defs>
<clipPath id="clip0_5_52">
<rect width="177.786" height="78.4319" fill="white"/>
</clipPath>
</defs>
</svg>
