<svg width="209" height="200" viewBox="0 0 209 200" fill="none" xmlns="http://www.w3.org/2000/svg">
<path opacity="0.4" d="M194.597 113.284C202.134 65.8602 169.97 21.2785 122.758 13.7079C75.5457 6.13728 31.1627 38.4447 23.6259 85.8685C16.0891 133.292 48.2524 177.874 95.4648 185.445C142.677 193.015 187.06 160.708 194.597 113.284Z" fill="#26B7BC"/>
<path d="M132.936 100.551H85.2707C67.5931 100.551 53.2654 114.362 53.2654 131.375V194.659H164.927V131.375C164.941 114.362 150.613 100.551 132.936 100.551Z" fill="#DDF8F3"/>
<path d="M79.7549 130.159C79.668 130.159 79.5844 130.192 79.5217 130.253C79.459 130.313 79.422 130.396 79.4185 130.483V142.456L72.8668 126.97C72.8508 126.927 72.8262 126.889 72.7947 126.857C72.7631 126.825 72.7252 126.8 72.6834 126.783C72.6416 126.767 72.5969 126.759 72.552 126.761C72.5072 126.763 72.4632 126.774 72.4228 126.794C72.3439 126.83 72.2817 126.894 72.2491 126.975C72.2165 127.055 72.2161 127.146 72.2479 127.226L79.4185 144.24V194.713C79.4185 194.802 79.454 194.888 79.5171 194.952C79.5801 195.015 79.6657 195.051 79.7549 195.051C79.8441 195.051 79.9296 195.015 79.9927 194.952C80.0558 194.888 80.0912 194.802 80.0912 194.713V130.483C80.0877 130.396 80.0508 130.313 79.9881 130.253C79.9254 130.192 79.8418 130.159 79.7549 130.159Z" fill="white"/>
<path d="M146.564 126.74C146.524 126.72 146.481 126.709 146.437 126.707C146.393 126.706 146.35 126.713 146.309 126.73C146.268 126.747 146.231 126.772 146.201 126.804C146.171 126.836 146.148 126.874 146.133 126.916L139.864 141.78V130.591C139.864 130.502 139.829 130.416 139.765 130.352C139.702 130.289 139.617 130.253 139.528 130.253C139.438 130.253 139.353 130.289 139.29 130.352C139.227 130.416 139.191 130.502 139.191 130.591V143.361L138.936 143.97C138.904 144.05 138.904 144.14 138.937 144.221C138.969 144.302 139.032 144.366 139.111 144.402H139.191V194.618C139.191 194.708 139.227 194.794 139.29 194.857C139.353 194.92 139.438 194.956 139.528 194.956C139.617 194.956 139.702 194.92 139.765 194.857C139.829 194.794 139.864 194.708 139.864 194.618V143.51L146.739 127.172C146.758 127.133 146.769 127.089 146.771 127.045C146.773 127.001 146.765 126.957 146.749 126.916C146.732 126.875 146.707 126.838 146.675 126.808C146.643 126.778 146.605 126.754 146.564 126.74Z" fill="white"/>
<path d="M120.411 96.429C119.726 96.5855 119.027 96.6671 118.325 96.6722H100.957C100.251 96.6678 99.5473 96.5863 98.8586 96.429C96.9453 96.0095 95.2044 95.015 93.8674 93.5776V99.6587C93.9871 103.77 95.6973 107.673 98.6348 110.539C101.572 113.404 105.506 115.007 109.601 115.007C113.696 115.007 117.63 113.404 120.567 110.539C123.505 107.673 125.215 103.77 125.335 99.6587V93.5776C124.016 95.0032 122.3 95.9968 120.411 96.429Z" fill="#FFEDED"/>
<path opacity="0.46" d="M100.957 96.6725C100.251 96.668 99.5471 96.5865 98.8584 96.4292C101.776 99.1749 105.623 100.703 109.621 100.703C113.619 100.703 117.467 99.1749 120.384 96.4292C119.699 96.5857 119 96.6673 118.298 96.6725H100.957Z" fill="#F9D9EB"/>
<path d="M88.93 68.375C88.93 68.375 88.93 68.375 88.8224 68.375C88.7355 68.375 88.6519 68.3413 88.5892 68.2808C88.5265 68.2204 88.4895 68.1379 88.486 68.0506C88.4173 67.2527 88.6593 66.459 89.1611 65.8365C89.6628 65.2141 90.3854 64.8112 91.1767 64.7128V63.1317C91.034 62.9281 90.9037 62.716 90.7865 62.4966C89.4666 62.8643 88.308 63.667 87.4969 64.7758C86.6858 65.8846 86.2693 67.235 86.3143 68.6102C86.3593 69.9854 86.8633 71.3054 87.7451 72.3583C88.6269 73.4111 89.8355 74.1357 91.1767 74.4155V71.902C90.5245 71.567 89.9727 71.0639 89.5778 70.4441C89.183 69.8243 88.9595 69.1102 88.93 68.375Z" fill="#FFEDED"/>
<path d="M132.882 68.4158C132.88 67.0335 132.414 65.6922 131.56 64.6085C130.705 63.5248 129.512 62.7619 128.173 62.4429C128.173 62.6321 128.039 62.8077 127.958 62.9834V64.5375C128.096 64.5833 128.23 64.6375 128.362 64.6996C128.775 64.7235 129.179 64.8301 129.551 65.013C129.923 65.196 130.254 65.4517 130.526 65.7652C130.798 66.0786 131.005 66.4435 131.134 66.8383C131.264 67.2332 131.314 67.6501 131.281 68.0645C131.281 68.1505 131.247 68.233 131.186 68.2938C131.126 68.3546 131.044 68.3888 130.958 68.3888C130.902 69.2555 130.589 70.0855 130.059 70.7718C129.529 71.4582 128.807 71.9696 127.985 72.2402V74.4429C129.369 74.1617 130.613 73.4075 131.506 72.3087C132.399 71.2098 132.885 69.8342 132.882 68.4158Z" fill="#FFEDED"/>
<path d="M130.635 68.0644C130.665 67.7224 130.624 67.378 130.515 67.0527C130.405 66.7275 130.23 66.4285 130 66.1746C129.77 65.9207 129.49 65.7174 129.178 65.5775C128.866 65.4376 128.528 65.3641 128.187 65.3617C128.102 65.3592 128.02 65.3255 127.958 65.2671V72.2401C128.78 71.9695 129.502 71.4581 130.032 70.7717C130.562 70.0854 130.875 69.2554 130.931 68.3887C130.89 68.3889 130.849 68.3804 130.811 68.3638C130.774 68.3472 130.74 68.3228 130.712 68.2923C130.684 68.2618 130.663 68.2257 130.65 68.1865C130.636 68.1472 130.631 68.1056 130.635 68.0644Z" fill="#FFEDED"/>
<path d="M89.1452 68.064C89.1408 68.1273 89.1181 68.1879 89.0799 68.2383C89.0416 68.2888 88.9895 68.3268 88.9299 68.3478C88.9635 69.0923 89.1961 69.814 89.6032 70.437C90.0104 71.0601 90.5772 71.5614 91.2439 71.8884V65.3613C90.6098 65.4424 90.0333 65.772 89.6401 66.2783C89.2469 66.7846 89.069 67.4265 89.1452 68.064Z" fill="#F9D9EB"/>
<path opacity="0.46" d="M128.187 64.6861H128.362C128.23 64.6239 128.096 64.5698 127.958 64.5239V64.8077C128.016 64.7393 128.098 64.6958 128.187 64.6861Z" fill="#EF92C7"/>
<path d="M127.958 64.8073V65.2803C128.02 65.3388 128.102 65.3724 128.187 65.3749C128.528 65.3773 128.866 65.4508 129.178 65.5907C129.49 65.7306 129.77 65.9339 130 66.1878C130.23 66.4417 130.405 66.7407 130.515 67.0659C130.624 67.3912 130.665 67.7356 130.635 68.0776C130.633 68.1178 130.64 68.1579 130.654 68.1955C130.668 68.2332 130.689 68.2676 130.717 68.2966C130.745 68.3257 130.778 68.3488 130.815 68.3646C130.852 68.3803 130.891 68.3885 130.931 68.3884C131.017 68.3884 131.099 68.3542 131.16 68.2934C131.22 68.2326 131.254 68.1501 131.254 68.0641C131.287 67.6496 131.237 67.2328 131.108 66.8379C130.978 66.4431 130.771 66.0782 130.499 65.7648C130.227 65.4513 129.896 65.1956 129.524 65.0126C129.152 64.8297 128.748 64.7231 128.335 64.6992H128.16C128.082 64.7115 128.011 64.7496 127.958 64.8073Z" fill="#243762"/>
<path d="M88.4861 68.0641C88.4895 68.1513 88.5265 68.2338 88.5892 68.2943C88.6519 68.3547 88.7355 68.3885 88.8224 68.3884C88.8224 68.3884 88.8224 68.3884 88.93 68.3884C88.9896 68.3674 89.0417 68.3293 89.08 68.2789C89.1182 68.2285 89.1409 68.1679 89.1453 68.1046C89.0691 67.4671 89.247 66.8252 89.6402 66.3189C90.0333 65.8126 90.6099 65.483 91.244 65.4019V64.7397C90.443 64.822 89.7058 65.2159 89.1904 65.8372C88.6749 66.4585 88.4221 67.2579 88.4861 68.0641Z" fill="#243762"/>
<path d="M127.958 65.2535V62.9832C128.039 62.8075 128.106 62.6318 128.173 62.4426C128.577 61.4291 128.94 60.4156 129.317 59.6183C132.465 53.1589 134.469 42.767 125.079 41.5102C124.66 41.4567 124.237 41.4296 123.814 41.4291C122.193 41.4233 120.599 41.0005 119.186 40.201C117.773 39.4014 116.588 38.2518 115.742 36.8616C114.658 35.1509 113.161 33.7434 111.39 32.77C109.618 31.7966 107.631 31.2888 105.612 31.294C103.991 31.3306 102.394 31.6895 100.912 32.35C99.4305 33.0104 98.0937 33.9592 96.9791 35.1416C95.8645 36.324 94.9942 37.7165 94.4186 39.2388C93.8429 40.761 93.5733 42.3827 93.6252 44.0102C92.4828 44.0692 91.3822 44.461 90.4577 45.1377C89.5332 45.8144 88.8247 46.7467 88.4188 47.821C87.9321 49.3812 87.8306 51.0369 88.1228 52.6453C88.4453 55.0976 88.981 57.5167 89.7238 59.8751C89.9889 60.7869 90.3544 61.6662 90.8135 62.4967C90.9307 62.7161 91.061 62.9282 91.2036 63.1318V86.9021C91.2212 89.4843 92.2503 91.9557 94.068 93.7816C95.8858 95.6075 98.3462 96.6412 100.917 96.6589H118.258C120.831 96.6517 123.296 95.621 125.114 93.7925C126.932 91.9639 127.954 89.4863 127.958 86.9021V65.2805V65.2535Z" fill="#0E7A7D"/>
<path d="M94.8495 69.3074V56.1047C94.7529 54.5647 95.2631 53.0483 96.2699 51.8828C97.2767 50.7172 98.6993 49.9961 100.231 49.875H99.5312C97.948 49.921 96.4475 50.5953 95.3582 51.7502C94.2689 52.9052 93.6796 54.4467 93.7194 56.0372V69.0912C93.6972 70.4493 94.1272 71.776 94.9413 72.8606C95.7554 73.9452 96.9068 74.7255 98.2128 75.0777C97.1663 74.5339 96.2947 73.7031 95.6994 72.6817C95.1041 71.6603 94.8094 70.4903 94.8495 69.3074Z" fill="#F9D9EB"/>
<path d="M119.482 49.9429H118.877C120.408 50.064 121.831 50.7851 122.838 51.9506C123.845 53.1161 124.355 54.6326 124.258 56.1726V69.3753C124.291 70.5382 124.003 71.6875 123.426 72.6963C122.849 73.705 122.006 74.534 120.989 75.0915C122.238 74.6916 123.325 73.8989 124.09 72.8307C124.856 71.7624 125.259 70.4752 125.24 69.1591V56.105C125.28 54.5236 124.699 52.9901 123.621 51.8366C122.543 50.6832 121.056 50.0028 119.482 49.9429Z" fill="#F9D9EB"/>
<path opacity="0.46" d="M94.8495 69.3074V56.1047C94.7529 54.5647 95.2631 53.0483 96.2699 51.8828C97.2767 50.7172 98.6993 49.9961 100.231 49.875H99.5312C97.948 49.921 96.4475 50.5953 95.3582 51.7502C94.2689 52.9052 93.6796 54.4467 93.7194 56.0372V69.0912C93.6972 70.4493 94.1272 71.776 94.9413 72.8606C95.7554 73.9452 96.9068 74.7255 98.2128 75.0777C97.1663 74.5339 96.2947 73.7031 95.6994 72.6817C95.1041 71.6603 94.8094 70.4903 94.8495 69.3074Z" fill="#F9D9EB"/>
<path opacity="0.46" d="M119.482 49.9429H118.877C120.408 50.064 121.831 50.7851 122.838 51.9506C123.845 53.1161 124.355 54.6326 124.258 56.1726V69.3753C124.291 70.5382 124.003 71.6875 123.426 72.6963C122.849 73.705 122.006 74.534 120.989 75.0915C122.238 74.6916 123.325 73.8989 124.09 72.8307C124.856 71.7624 125.259 70.4752 125.24 69.1591V56.105C125.28 54.5236 124.699 52.9901 123.621 51.8366C122.543 50.6832 121.056 50.0028 119.482 49.9429Z" fill="#FFEDED"/>
<path d="M118.877 49.9429H117.989C117.647 51.9878 116.594 53.8446 115.017 55.1837C113.441 56.5228 111.443 57.2576 109.379 57.2576C107.315 57.2576 105.317 56.5228 103.741 55.1837C102.164 53.8446 101.112 51.9878 100.769 49.9429H100.325C98.7935 50.064 97.3709 50.7851 96.3641 51.9506C95.3573 53.1161 94.8472 54.6326 94.9437 56.1726V69.3753C94.9085 70.5639 95.2113 71.7379 95.8165 72.7598C96.4217 73.7818 97.3043 74.6093 98.3608 75.1456C98.9908 75.4484 99.6804 75.6054 100.379 75.605H103.581C103.954 74.6593 104.601 73.8475 105.438 73.2743C106.275 72.7011 107.263 72.3927 108.276 72.3888H111.693C112.706 72.3909 113.696 72.6986 114.533 73.272C115.37 73.8455 116.016 74.6582 116.388 75.605H118.931C119.682 75.6017 120.423 75.426 121.097 75.0915C122.113 74.534 122.957 73.705 123.534 72.6963C124.11 71.6875 124.399 70.5382 124.366 69.3753V56.1726C124.413 55.4014 124.309 54.6284 124.059 53.8978C123.808 53.1672 123.417 52.4933 122.907 51.9147C122.397 51.3361 121.779 50.8641 121.088 50.5258C120.396 50.1874 119.645 49.9894 118.877 49.9429Z" fill="#FFEDED"/>
<path d="M117.518 67.6726C117.719 67.6726 117.912 67.5933 118.056 67.4517C118.199 67.3102 118.282 67.1177 118.285 66.9158V65.3753C118.285 65.171 118.204 64.975 118.061 64.8306C117.917 64.6861 117.722 64.605 117.518 64.605C117.315 64.605 117.12 64.6861 116.976 64.8306C116.832 64.975 116.751 65.171 116.751 65.3753V66.9158C116.755 67.1177 116.837 67.3102 116.981 67.4517C117.124 67.5933 117.317 67.6726 117.518 67.6726Z" fill="#243762"/>
<path d="M102.451 67.6722C102.65 67.6722 102.842 67.5925 102.983 67.4505C103.125 67.3086 103.204 67.1161 103.204 66.9154V65.3749C103.206 65.2744 103.188 65.1745 103.15 65.0811C103.113 64.9878 103.058 64.9027 102.988 64.831C102.918 64.7593 102.834 64.7024 102.742 64.6635C102.65 64.6246 102.551 64.6046 102.451 64.6046C102.349 64.6028 102.249 64.6215 102.155 64.6595C102.061 64.6976 101.976 64.7543 101.904 64.8261C101.833 64.898 101.776 64.9837 101.738 65.078C101.7 65.1722 101.682 65.2732 101.684 65.3749V66.9154C101.684 67.0159 101.704 67.1155 101.742 67.2082C101.781 67.3009 101.838 67.3849 101.909 67.4554C101.981 67.5258 102.065 67.5813 102.158 67.6185C102.251 67.6557 102.35 67.674 102.451 67.6722Z" fill="#243762"/>
<path d="M115.473 62.2398C115.869 62.5189 116.336 62.6784 116.819 62.6992C117.289 62.7803 117.76 62.8749 118.164 62.983C118.567 63.0911 119.038 63.2263 119.509 63.3884C119.927 63.5923 120.396 63.6631 120.855 63.5911C121.258 63.4695 121.527 62.9154 121.272 62.0641C121.081 61.522 120.758 61.0366 120.333 60.6518C119.908 60.2671 119.393 59.9954 118.837 59.8614C118.301 59.7086 117.734 59.702 117.195 59.8421C116.656 59.9822 116.164 60.2641 115.769 60.6587C115.137 61.2938 115.164 61.929 115.473 62.2398Z" fill="#243762"/>
<path d="M99.0468 63.6317C99.5335 63.7124 100.033 63.6514 100.486 63.456C100.984 63.2938 101.482 63.1587 101.912 63.0641C102.343 62.9695 102.868 62.8749 103.379 62.7938C103.863 62.7801 104.332 62.62 104.724 62.3344C105.047 62.0236 105.034 61.3614 104.374 60.6992C103.925 60.2792 103.379 59.9769 102.785 59.819C102.192 59.6611 101.568 59.6525 100.971 59.7938C100.386 59.9165 99.8462 60.1963 99.4079 60.6033C98.9695 61.0103 98.6495 61.5292 98.4818 62.1046C98.2665 62.9155 98.6029 63.456 99.0468 63.6317Z" fill="#243762"/>
<path d="M110.401 83.1185L108.666 83.2266C107.818 83.2266 107.105 82.8347 107.079 82.2537L106.863 78.4969L116.482 78.0645C116.765 83.132 113.899 82.9293 110.401 83.1185Z" fill="white"/>
<path d="M112.339 70.5375H109.016C108.647 70.5352 108.284 70.4433 107.959 70.2698C107.633 70.0963 107.354 69.8463 107.145 69.541C106.936 69.2357 106.804 68.8843 106.76 68.5166C106.715 68.1489 106.76 67.7759 106.89 67.4294L108.693 60.4023C108.698 60.3563 108.713 60.3119 108.737 60.2722C108.761 60.2325 108.793 60.1985 108.831 60.1723C108.869 60.1461 108.913 60.1285 108.958 60.1205C109.004 60.1126 109.05 60.1145 109.095 60.1262C109.14 60.1379 109.181 60.1591 109.217 60.1884C109.253 60.2176 109.282 60.2543 109.303 60.2958C109.323 60.3373 109.335 60.3828 109.336 60.4292C109.338 60.4755 109.329 60.5217 109.312 60.5645L107.509 67.6185C107.409 67.8715 107.372 68.1449 107.4 68.4154C107.428 68.686 107.521 68.9458 107.67 69.1726C107.821 69.3906 108.022 69.5685 108.257 69.6909C108.491 69.8133 108.752 69.8766 109.016 69.8753H112.339C112.415 69.8908 112.483 69.9322 112.532 69.9926C112.581 70.0529 112.608 70.1285 112.608 70.2064C112.608 70.2843 112.581 70.3598 112.532 70.4202C112.483 70.4805 112.415 70.522 112.339 70.5375Z" fill="#243762"/>
<path opacity="0.89" d="M115.904 123.483L114.343 120.321L112.433 123.997C112.316 124.201 112.147 124.371 111.944 124.489C111.741 124.608 111.511 124.671 111.276 124.672H108.935C108.716 124.677 108.5 124.623 108.308 124.516C108.117 124.409 107.957 124.253 107.845 124.064L105.464 120.01L103.89 123.172L107.226 129.47L103.715 170.983C103.688 171.103 103.688 171.228 103.715 171.348L109.271 186.605C109.333 186.77 109.443 186.913 109.587 187.014C109.731 187.115 109.903 187.169 110.079 187.169C110.254 187.169 110.426 187.115 110.57 187.014C110.714 186.913 110.825 186.77 110.886 186.605L116.079 171.362C116.106 171.251 116.106 171.135 116.079 171.024L112.971 129.672C112.971 129.591 113.092 129.51 113.146 129.416L115.904 123.483ZM112.998 147.591C113.011 147.649 113.011 147.709 112.998 147.767L110.469 155.186C110.439 155.266 110.385 155.334 110.316 155.383C110.246 155.431 110.163 155.457 110.079 155.457C109.994 155.457 109.911 155.431 109.841 155.383C109.772 155.334 109.718 155.266 109.688 155.186L106.998 147.754C106.985 147.696 106.985 147.636 106.998 147.578L108.464 130.253H108.706H111.72L112.998 147.591Z" fill="#19A48D"/>
<path opacity="0.89" d="M111.653 130.294H108.639H108.397L106.957 147.591C106.945 147.649 106.945 147.709 106.957 147.767L109.648 155.199C109.678 155.279 109.731 155.348 109.801 155.396C109.871 155.444 109.953 155.47 110.038 155.47C110.123 155.47 110.206 155.444 110.275 155.396C110.345 155.348 110.398 155.279 110.428 155.199L112.958 147.78C112.97 147.723 112.97 147.663 112.958 147.605L111.612 130.307L111.653 130.294Z" fill="#57B8A8"/>
<path opacity="0.89" d="M105.464 119.997L107.845 124.051C107.957 124.24 108.117 124.396 108.308 124.503C108.5 124.61 108.716 124.664 108.935 124.659H111.276C111.511 124.658 111.741 124.594 111.944 124.476C112.147 124.357 112.316 124.188 112.433 123.983L114.343 120.308L109.823 111.227L105.464 119.997Z" fill="#57B8A8"/>
<path d="M127.003 96.1455L109.809 110.227L92.6296 96.1455L84.0464 109.091L103.015 124.902L103.89 123.159L105.464 119.997L109.809 111.24L114.33 120.321L115.904 123.47L116.617 124.902L135.586 109.091L127.003 96.1455Z" fill="white"/>
<path d="M182.201 84.8754C181.893 84.7142 181.553 84.6214 181.205 84.6032C180.858 84.585 180.511 84.6419 180.187 84.7699C179.863 84.898 179.57 85.0943 179.328 85.3456C179.086 85.5969 178.901 85.8973 178.784 86.2267C178.085 87.9294 177.372 89.6321 176.686 91.3483C176.914 90.7673 178.435 78.0375 178.488 76.8754C178.721 75.8006 178.675 74.6837 178.354 73.6321C178.209 73.4527 178.027 73.3075 177.82 73.2071C177.613 73.1066 177.386 73.0533 177.156 73.051C176.672 72.9673 176.173 73.0382 175.73 73.2537C175.323 73.4957 175.014 73.8735 174.856 74.3213C174.691 74.7568 174.578 75.2104 174.52 75.6727C173.901 79.4429 173.174 83.2132 172.717 87.0105C172.825 81.8078 173.336 76.6591 173.659 71.4564C173.76 70.6427 173.706 69.817 173.497 69.024C173.38 68.6318 173.152 68.2819 172.842 68.0159C172.532 67.75 172.152 67.5792 171.748 67.524C171.369 67.5334 170.999 67.6466 170.679 67.8514C170.359 68.0562 170.101 68.3448 169.932 68.6862C169.603 69.3741 169.398 70.1154 169.327 70.8754C168.995 73.2718 168.654 75.6546 168.304 78.024C168.129 79.2402 167.968 80.4429 167.793 81.6456L167.537 83.4159C167.538 83.9865 167.442 84.553 167.255 85.0916C167.199 84.0232 167.231 82.9521 167.349 81.8889C167.349 80.7673 167.416 79.6456 167.457 78.524L167.699 71.8619C167.755 71.05 167.723 70.2344 167.605 69.4294C167.481 68.621 167.104 67.8731 166.528 67.2943C166.236 67.0109 165.875 66.8093 165.48 66.7098C165.086 66.6102 164.673 66.616 164.282 66.7267C163.755 66.9346 163.314 67.3157 163.031 67.8078C162.756 68.2955 162.547 68.8182 162.412 69.3619C161.848 71.4068 161.426 73.4883 161.147 75.5916C160.824 77.8078 160.528 80.0375 160.286 82.2673C160.178 83.1862 160.03 84.4429 159.089 84.8889C158.899 84.9795 158.692 85.0278 158.482 85.0304C158.272 85.0329 158.064 84.9896 157.872 84.9036C157.68 84.8175 157.509 84.6907 157.371 84.5318C157.233 84.373 157.13 84.1859 157.071 83.9835C156.654 82.47 156.29 80.9564 155.873 79.4429C155.653 78.2466 155.002 77.1737 154.044 76.4294C153.623 76.1417 153.138 75.9615 152.632 75.9042C152.126 75.8469 151.614 75.9143 151.139 76.1006C150.665 76.2869 150.243 76.5865 149.91 76.9734C149.577 77.3604 149.343 77.823 149.228 78.3213C149.106 79.0051 149.106 79.705 149.228 80.3889C150.008 87.7808 150.68 95.0781 151.353 102.429L174.022 107.956L182.094 88.7943C183.197 86.1727 182.914 85.3078 182.201 84.8754Z" fill="#FFEDED"/>
<path opacity="0.46" d="M161.699 96.1182C161.755 96.1024 161.806 96.0714 161.847 96.0285C161.887 95.9857 161.915 95.9326 161.927 95.875C162.398 93.7246 162.235 91.4831 161.459 89.4242C160.682 87.3652 159.326 85.5779 157.555 84.2804C157.485 84.2405 157.403 84.2294 157.325 84.2496C157.247 84.2698 157.18 84.3196 157.138 84.3885C157.116 84.422 157.101 84.4596 157.094 84.499C157.087 84.5385 157.087 84.579 157.096 84.6182C157.105 84.6573 157.122 84.6943 157.145 84.7268C157.168 84.7593 157.198 84.7868 157.232 84.8074C158.922 86.0184 160.215 87.7075 160.946 89.6593C161.677 91.6111 161.812 93.7373 161.336 95.7669C161.324 95.8455 161.342 95.9256 161.387 95.991C161.432 96.0563 161.5 96.1019 161.578 96.1182H161.699Z" fill="#EF92C7"/>
<path d="M150.075 102.105C149.589 101.987 149.085 101.972 148.593 102.061C148.101 102.15 147.633 102.342 147.219 102.623C146.805 102.904 146.454 103.268 146.188 103.694C145.922 104.119 145.748 104.595 145.676 105.092L137.765 158.348V159.402C137.765 179.983 167.766 181.97 170.484 161.565L177.062 112.051C177.199 111.16 176.999 110.249 176.501 109.499C176.003 108.749 175.243 108.213 174.372 107.997H174.062L151.353 102.429L150.075 102.105Z" fill="#DDF8F3"/>
<path d="M175.435 121.402C175.566 121.384 175.689 121.327 175.787 121.238C175.886 121.149 175.955 121.032 175.986 120.902C176.006 120.818 176.009 120.73 175.994 120.645C175.98 120.56 175.948 120.478 175.902 120.405C175.856 120.332 175.795 120.269 175.724 120.22C175.653 120.17 175.573 120.136 175.488 120.118L150.56 114.321L149.093 107.024C149.077 106.939 149.044 106.859 148.997 106.787C148.95 106.715 148.888 106.653 148.817 106.606C148.746 106.558 148.665 106.525 148.581 106.508C148.497 106.492 148.41 106.493 148.326 106.51C148.158 106.546 148.01 106.647 147.914 106.791C147.819 106.935 147.783 107.111 147.815 107.281L149.281 114.578C149.331 114.838 149.455 115.078 149.64 115.268C149.824 115.458 150.06 115.589 150.317 115.646L175.26 121.443C175.32 121.442 175.38 121.428 175.435 121.402Z" fill="#F9F9F9"/>
<path d="M153.869 112.281C153.288 112.145 152.784 111.786 152.464 111.28C152.145 110.775 152.035 110.164 152.16 109.578C152.255 109.173 152.458 108.801 152.747 108.503C153.037 108.205 153.402 107.992 153.804 107.888C154.205 107.783 154.627 107.791 155.024 107.91C155.422 108.029 155.779 108.255 156.058 108.563C156.336 108.872 156.526 109.251 156.605 109.659C156.685 110.068 156.652 110.491 156.51 110.882C156.367 111.273 156.121 111.618 155.798 111.879C155.475 112.139 155.087 112.306 154.676 112.362C154.404 112.389 154.13 112.361 153.869 112.281ZM153.425 109.835C153.381 110.083 153.434 110.339 153.573 110.55C153.712 110.76 153.925 110.909 154.17 110.966C154.415 111.023 154.672 110.984 154.888 110.857C155.105 110.729 155.265 110.523 155.335 110.281C155.392 110.026 155.348 109.76 155.213 109.538C155.077 109.316 154.86 109.156 154.609 109.092C154.493 109.072 154.375 109.072 154.259 109.092C154.063 109.119 153.879 109.205 153.73 109.337C153.582 109.469 153.476 109.642 153.425 109.835Z" fill="#F9F9F9"/>
<path d="M34.6875 20C41.001 19.9934 47.1973 21.7031 52.6124 24.946C58.0274 28.1888 62.4572 32.8426 65.4268 38.4086C68.3965 43.9745 69.7942 50.2428 69.4701 56.5418C69.146 62.8407 67.1123 68.9328 63.587 74.1652C63.587 74.2615 63.8279 75.3361 63.9563 76.0419C64.934 80.3015 67.1716 84.1688 70.3784 87.1412C73.4931 89.7716 64.2292 91.8407 57.5342 87.4459C56.0867 86.5038 54.8421 85.2822 53.8736 83.8531C49.3416 86.8227 44.1777 88.6935 38.7938 89.3164C33.4098 89.9392 27.9547 89.2968 22.8633 87.4404C17.7719 85.584 13.185 82.5649 9.46842 78.6239C5.75181 74.6829 3.00825 69.9289 1.45648 64.741C-0.0952936 59.5531 -0.412355 54.0747 0.530562 48.7427C1.47348 43.4107 3.65029 38.3725 6.88746 34.0299C10.1246 29.6872 14.3326 26.1601 19.1759 23.7298C24.0193 21.2996 29.3639 20.0333 34.7839 20.0321L34.6875 20Z" fill="#26B7BC"/>
<path d="M15.1698 61.4823V63H8.13215V61.4823H15.1698ZM8.49951 48.9246V63H6.63375V48.9246H8.49951ZM27.5051 55.5176V56.407C27.5051 57.4639 27.373 58.4113 27.1088 59.2491C26.8445 60.087 26.4643 60.7991 25.968 61.3856C25.4718 61.9721 24.8756 62.42 24.1796 62.7293C23.49 63.0387 22.7167 63.1933 21.8595 63.1933C21.0281 63.1933 20.2644 63.0387 19.5684 62.7293C18.8788 62.42 18.2794 61.9721 17.7703 61.3856C17.2676 60.7991 16.8777 60.087 16.6006 59.2491C16.3234 58.4113 16.1849 57.4639 16.1849 56.407V55.5176C16.1849 54.4607 16.3202 53.5165 16.5909 52.6852C16.868 51.8473 17.2579 51.1352 17.7606 50.5487C18.2633 49.9558 18.8595 49.5047 19.5491 49.1953C20.2451 48.886 21.0088 48.7313 21.8402 48.7313C22.6973 48.7313 23.4707 48.886 24.1603 49.1953C24.8563 49.5047 25.4525 49.9558 25.9487 50.5487C26.4514 51.1352 26.8349 51.8473 27.0991 52.6852C27.3698 53.5165 27.5051 54.4607 27.5051 55.5176ZM25.6587 56.407V55.4983C25.6587 54.6605 25.5717 53.9193 25.3977 53.2749C25.2301 52.6304 24.982 52.089 24.6533 51.6508C24.3246 51.2125 23.9218 50.8806 23.4449 50.6551C22.9744 50.4295 22.4395 50.3167 21.8402 50.3167C21.2601 50.3167 20.7349 50.4295 20.2644 50.6551C19.8004 50.8806 19.4008 51.2125 19.0657 51.6508C18.737 52.089 18.4824 52.6304 18.302 53.2749C18.1215 53.9193 18.0313 54.6605 18.0313 55.4983V56.407C18.0313 57.2513 18.1215 57.9989 18.302 58.6498C18.4824 59.2943 18.7402 59.8388 19.0754 60.2835C19.4169 60.7218 19.8197 61.0537 20.2838 61.2792C20.7542 61.5048 21.2795 61.6176 21.8595 61.6176C22.4653 61.6176 23.0034 61.5048 23.4739 61.2792C23.9444 61.0537 24.3407 60.7218 24.663 60.2835C24.9917 59.8388 25.2398 59.2943 25.4073 58.6498C25.5749 57.9989 25.6587 57.2513 25.6587 56.407ZM40.7008 55.9913V61.1439C40.5268 61.4017 40.2496 61.6917 39.8694 62.014C39.4891 62.3297 38.9639 62.6069 38.2936 62.8453C37.6298 63.0773 36.7727 63.1933 35.7222 63.1933C34.865 63.1933 34.0755 63.0451 33.3537 62.7487C32.6384 62.4458 32.0164 62.0075 31.488 61.4339C30.9659 60.8539 30.5599 60.1514 30.2699 59.3265C29.9863 58.4951 29.8446 57.5542 29.8446 56.5037V55.4113C29.8446 54.3608 29.967 53.4231 30.2119 52.5982C30.4633 51.7732 30.8306 51.074 31.314 50.5004C31.7973 49.9204 32.3902 49.4821 33.0927 49.1857C33.7952 48.8827 34.6008 48.7313 35.5095 48.7313C36.5858 48.7313 37.4848 48.9182 38.2066 49.292C38.9349 49.6593 39.502 50.1685 39.9081 50.8194C40.3205 51.4703 40.5848 52.2115 40.7008 53.0428H38.835C38.7512 52.5337 38.5837 52.0697 38.3323 51.6508C38.0874 51.2319 37.7362 50.8967 37.2786 50.6454C36.821 50.3876 36.2313 50.2587 35.5095 50.2587C34.8586 50.2587 34.2947 50.3779 33.8178 50.6164C33.3408 50.8548 32.9477 51.1964 32.6384 51.6411C32.329 52.0858 32.097 52.6239 31.9423 53.2555C31.7941 53.8871 31.72 54.5993 31.72 55.392V56.5037C31.72 57.3157 31.8134 58.0408 32.0003 58.6788C32.1937 59.3168 32.4676 59.8614 32.822 60.3125C33.1765 60.7572 33.5986 61.0956 34.0884 61.3276C34.5847 61.5596 35.1325 61.6756 35.7319 61.6756C36.3957 61.6756 36.9338 61.6208 37.3463 61.5113C37.7587 61.3953 38.081 61.2599 38.313 61.1052C38.545 60.9441 38.7222 60.7927 38.8447 60.6509V57.4994H35.5868V55.9913H40.7008ZM45.7953 48.9246V63H43.9296V48.9246H45.7953ZM60.0157 48.9246V63H58.1403L51.0543 52.1438V63H49.1885V48.9246H51.0543L58.1693 59.8098V48.9246H60.0157Z" fill="white"/>
</svg>
