<svg width="14" height="15" viewBox="0 0 14 15" fill="none" xmlns="http://www.w3.org/2000/svg">
<path d="M11.9468 2.81781L13.125 1.63962L12.5064 1.021L11.3282 2.19918L10.85 1.721C10.771 1.63803 10.676 1.57197 10.5707 1.52684C10.4654 1.4817 10.3521 1.45843 10.2375 1.45843C10.1229 1.45843 10.0096 1.4817 9.9043 1.52684C9.79901 1.57197 9.70399 1.63803 9.625 1.721L1.75 9.596V12.396H4.55L12.425 4.521C12.508 4.44201 12.574 4.34699 12.6192 4.2417C12.6643 4.13641 12.6876 4.02305 12.6876 3.9085C12.6876 3.79394 12.6643 3.68058 12.6192 3.57529C12.574 3.47001 12.508 3.37498 12.425 3.296L11.9468 2.81781ZM4.2 11.521H2.625V9.946L10.2375 2.3335L11.8125 3.9085L4.2 11.521Z" fill="#26B7BC"/>
<path d="M3.9375 5.21487L7.25638 1.896L7.875 2.51462L4.55612 5.8335L3.9375 5.21487Z" fill="#26B7BC"/>
</svg>
