<svg width="192" height="182" viewBox="0 0 192 182" fill="none" xmlns="http://www.w3.org/2000/svg">
<g clip-path="url(#clip0_289_473)">
<path d="M-9.46722 130.73C-12.6872 81.5759 18.0692 68.7644 18.0692 68.7644C30.2231 63.3066 52.2335 65.6724 65.0451 65.7237C89.0284 67.6625 112.67 60.078 136.559 65.3735C159.748 70.4981 169.092 74.9139 181.332 109.591C188.165 129.047 181.093 144.054 164.326 157.318C144.494 170.625 129.505 191.482 107.708 201.732C97.1595 205.592 84.903 200.741 74.0986 197.564C56.7261 190.184 26.448 196.803 20.6657 176.928C-0.909042 173.35 -8.21169 149.494 -9.46722 130.73Z" fill="#DDF8F3"/>
<path d="M79.7611 70.5068L62.1324 81.6872L37.5341 192.61L69.8621 200.604L94.3066 209L128.189 203.184L144.075 182.976C144.075 182.976 107.041 110.325 104.479 73.1631L79.7611 70.5068Z" fill="white"/>
<path d="M87.3888 8.75418L84.3738 8.69434L81.4783 9.27517C73.7914 10.8553 67.8126 15.4845 62.5086 20.8739C60.1247 23.1779 58.2802 25.981 57.1077 29.0821C55.9352 32.1832 55.4637 35.5053 55.727 38.8102C56.2565 46.5569 58.9128 53.5691 62.6709 60.2824C63.6653 62.0789 64.3251 64.041 64.6183 66.0733C65.1136 69.4897 65.2417 73.0514 65.4724 76.5447C65.5749 78.492 66.3264 79.7305 68.3079 80.2942C75.0212 82.233 85.2534 83.5483 92.129 82.1219C96.186 81.2678 97.4159 80.3454 101.387 79.1753C103.873 78.4407 104.633 75.998 104.514 73.1965C104.437 71.2748 104.847 69.3359 104.812 67.4057C104.773 66.746 104.91 66.0877 105.211 65.499C105.511 64.9104 105.963 64.4128 106.521 64.0576C114.601 57.8397 116.89 49.1022 116.676 39.4935C116.565 34.3688 113.952 29.9189 111.944 25.3238C110.214 21.4441 107.415 18.1378 103.873 15.792C98.8656 12.4378 93.2746 10.0507 87.3888 8.75418Z" fill="#FFEDED"/>
<path d="M91.1123 3.51029C88.123 4.3644 85.1335 5.14157 81.9648 5.79069C76.4131 6.93519 70.0073 7.35377 65.3182 10.7702C60.3986 14.3318 55.7096 20.8572 55.7694 27.2203C55.8548 31.6787 54.3345 34.7108 55.7694 39.0411C60.6378 37.0083 63.072 34.0446 66.7446 30.7904C70.4173 27.5363 76.8829 28.4758 81.3584 28.7918C91.7529 29.5178 102.66 28.7918 111.773 23.7269C113.188 23.0841 114.359 22.0031 115.113 20.6436C115.856 18.9354 114.259 17.9788 114.481 16.6891C114.703 15.3994 116.061 14.981 116.787 13.9902C117.164 13.5135 117.399 12.9397 117.464 12.3351C117.529 11.7304 117.422 11.1198 117.154 10.5738C116.531 9.54884 115.258 9.15595 114.088 8.86556C110.842 8.17242 107.514 7.95376 104.206 8.21643C105.65 7.19622 106.973 6.01572 108.152 4.69751C108.565 4.29445 108.86 3.78652 109.006 3.22837C109.254 1.93867 107.998 0.836922 106.751 0.401327C103.787 -0.623601 100.55 0.401277 97.5864 1.41766C95.4341 2.1949 93.2818 2.88679 91.1123 3.51029Z" fill="#0E7A7D"/>
<path d="M74.3552 52.5615C74.9998 52.5855 75.6426 52.4809 76.2464 52.2538C76.8501 52.0267 77.4026 51.6817 77.8717 51.2389C78.3407 50.7961 78.717 50.2644 78.9784 49.6747C79.2398 49.085 79.3812 48.4491 79.3943 47.8042C79.4314 47.209 79.3471 46.6125 79.1465 46.0509C78.9459 45.4892 78.6331 44.9743 78.2273 44.5373C77.8215 44.1003 77.3311 43.7504 76.7858 43.5089C76.2405 43.2673 75.6518 43.1392 75.0555 43.1323C71.9892 43.0212 69.2646 45.054 69.0767 47.5736C68.923 50.4092 70.99 52.3822 74.3552 52.5615Z" fill="#FBD8D8"/>
<path d="M106.034 46.7282C108.758 46.7282 110.561 45.1823 110.637 42.6883C110.723 39.8953 108.075 37.3928 105.026 37.333C102.916 37.333 101.37 39.1522 101.345 41.7829C101.319 44.8064 103.104 46.6855 106.034 46.7282Z" fill="#FBD8D8"/>
<path d="M87.568 39.5967C88.3288 40.9141 89.1614 42.1886 90.0621 43.4146C90.2899 43.5927 90.5605 43.7078 90.8468 43.7483C91.1332 43.7888 91.4251 43.7532 91.6933 43.6452C91.9256 43.4223 92.101 43.147 92.2051 42.8424C92.3091 42.5378 92.3387 42.2126 92.2913 41.8942C91.7439 40.6259 91.0471 39.4274 90.2158 38.3241C90.0187 38.1465 89.7797 38.0218 89.5212 37.962C89.2627 37.9023 88.9932 37.9093 88.7382 37.9825C88.3026 38.2045 88.0634 38.8793 87.568 39.5967Z" fill="#FBD8D8"/>
<path d="M78.9671 39.9809C78.8902 40.63 79.4966 41.6208 80.2739 41.4842C80.8888 41.3731 81.7942 40.7667 81.7771 40.0834C81.7158 39.7289 81.5584 39.3981 81.3219 39.127C81.0854 38.8559 80.7791 38.655 80.4362 38.5461C79.5479 38.4009 79.1123 39.1695 78.9671 39.9809Z" fill="#3A4B66"/>
<path d="M95.8441 38.2463C95.8193 38.4266 95.846 38.6101 95.921 38.7759C96.0662 39.0748 96.8605 39.7496 97.2277 39.63C98.6797 39.2969 98.936 37.0678 97.2961 36.8457C96.8766 36.8797 96.4857 37.0721 96.2028 37.3838C95.9863 37.6207 95.8593 37.9257 95.8441 38.2463Z" fill="#3A4B66"/>
<path d="M92.3164 67.1241C95.8715 67.7149 99.5219 67.0794 102.668 65.3219C102.863 65.2198 103.091 65.197 103.302 65.2584C103.514 65.3198 103.693 65.4606 103.804 65.6513C103.914 65.842 103.946 66.068 103.894 66.282C103.841 66.4959 103.708 66.6813 103.522 66.7995C99.9727 68.7704 95.8555 69.4667 91.8553 68.7725C90.7706 68.5932 91.2317 66.9447 92.3079 67.1241H92.3164Z" fill="#FBD8D8"/>
<path d="M90.0107 49.239C89.5731 49.2388 89.1361 49.2046 88.7039 49.1365C87.2742 48.9404 85.8913 48.4891 84.6212 47.8042C84.2062 47.5629 83.8799 47.1946 83.6903 46.7536C83.6756 46.7034 83.6756 46.65 83.6903 46.5998C83.6903 46.5401 83.8953 46.4802 84.1601 46.4802C84.5938 46.4919 85.0208 46.5908 85.4156 46.7707C86.7709 47.4427 88.2589 47.8045 89.7715 47.8298C91.17 47.8079 92.5411 47.4381 93.7608 46.7536C94.9806 46.0692 96.0107 45.0916 96.7581 43.9094C96.8436 43.7898 96.9204 43.6617 97.0143 43.5336C97.1083 43.4055 97.5268 42.7393 97.672 42.7393C97.7906 42.7753 97.8969 42.8433 97.9795 42.9358C98.097 43.5116 98.0282 44.1099 97.783 44.644C96.9782 45.9971 95.8462 47.1261 94.4911 47.9275C93.136 48.7289 91.6012 49.1771 90.0278 49.2306L90.0107 49.239Z" fill="white"/>
<path d="M82.3237 95.1813C89.8284 95.1177 97.2994 94.1688 104.582 92.3542C106.717 91.8247 107.622 95.1215 105.487 95.6511C97.9085 97.54 90.1338 98.529 82.3237 98.5977C80.1286 98.5977 80.1201 95.1813 82.3237 95.1813Z" fill="#DDF8F3"/>
<path d="M73.7825 112.76C84.4857 113.491 95.2382 112.917 105.803 111.051C106.24 110.945 106.701 111.009 107.091 111.231C107.482 111.454 107.773 111.817 107.904 112.247C107.964 112.464 107.98 112.69 107.952 112.912C107.924 113.135 107.853 113.35 107.742 113.546C107.631 113.741 107.482 113.912 107.305 114.05C107.128 114.187 106.925 114.289 106.708 114.348C95.8473 116.286 84.7905 116.894 73.7825 116.159C71.6045 116.005 71.5874 112.589 73.7825 112.743V112.76Z" fill="#DDF8F3"/>
<path d="M71.3485 130.32C83.6283 131.687 96.0298 131.532 108.272 129.859C108.707 129.754 109.166 129.818 109.556 130.038C109.946 130.259 110.238 130.619 110.373 131.046C110.493 131.482 110.436 131.948 110.214 132.342C109.991 132.736 109.621 133.026 109.185 133.147C96.6459 134.906 83.9368 135.104 71.3485 133.737C70.8996 133.724 70.4725 133.54 70.155 133.222C69.8374 132.904 69.6532 132.477 69.6403 132.028C69.6403 131.575 69.8203 131.141 70.1407 130.821C70.461 130.5 70.8955 130.32 71.3485 130.32Z" fill="#DDF8F3"/>
<path d="M74.2524 148.768C78.745 148.836 83.2631 148.999 87.7558 148.708C92.2484 148.418 96.536 147.675 100.892 147C101.329 146.895 101.789 146.961 102.179 147.183C102.569 147.405 102.86 147.767 102.993 148.196C103.114 148.632 103.057 149.098 102.834 149.492C102.611 149.886 102.242 150.175 101.806 150.297C97.2108 150.989 92.5985 151.774 87.9607 152.09C83.3229 152.406 78.8132 152.236 74.295 152.167C72.1 152.167 72.0914 148.751 74.295 148.751L74.2524 148.768Z" fill="#DDF8F3"/>
<path d="M65.0794 163.673C67.1248 163.788 69.175 163.788 71.2204 163.673C74.9272 163.604 78.6426 163.476 82.3238 163.34C90.5403 163.032 98.7567 162.665 106.956 162.127C108.519 162.024 110.091 161.913 111.645 161.785L113.294 161.623C113.482 161.623 114.225 161.469 113.533 161.623L113.985 161.554C116.138 161.153 117.06 164.441 114.899 164.843C112.749 165.173 110.582 165.384 108.408 165.475C104.676 165.731 100.943 165.936 97.2109 166.124C88.9688 166.542 80.7266 166.901 72.4418 167.089C69.9697 167.23 67.4916 167.23 65.0195 167.089C64.5699 167.078 64.1417 166.895 63.8237 166.577C63.5056 166.259 63.3222 165.831 63.3113 165.381C63.3113 164.928 63.4913 164.493 63.8117 164.173C64.132 163.853 64.5665 163.673 65.0195 163.673H65.0794Z" fill="#DDF8F3"/>
<path d="M9.67341 204.534C37.5515 205.977 58.5711 157.558 63.952 127.664C68.6752 101.409 75.4568 80.9272 68.53 73.5648C65.0623 69.875 66.7364 82.4646 53.7027 78.4588C46.6734 73.9149 20.4438 114.963 15.5327 120.618C11.8088 125.939 5.90685 101.178 2.78936 106.619C-0.814972 110.368 -6.33247 98.7096 -7.63925 104.56C-18.0423 151.024 -27.6596 202.595 9.67341 204.534Z" fill="#DDF8F3"/>
<path d="M54.9409 41.4326C52.8569 42.4148 53.4292 44.1231 53.8563 45.9252C52.736 44.9639 51.5163 44.1249 50.2178 43.4226C49.1331 42.97 47.5444 42.6454 46.6476 43.1323C45.9387 43.5166 45.9045 45.2078 45.6568 46.3352C45.6143 46.6502 45.6406 46.9707 45.7337 47.2747C44.5807 47.1722 43.0091 46.5658 42.4283 47.0868C41.5742 47.8384 41.4033 49.3929 40.8653 50.8107C37.8503 51.2463 36.9193 52.8434 38.8752 55.773C42.5448 61.4138 45.0911 67.7099 46.3743 74.3157C46.9722 77.1343 48.5181 78.7485 51.3281 79.6709C55.9061 81.1827 60.4072 82.7885 65.3354 82.6518C68.8202 82.5493 70.537 80.7386 71.3142 77.382C73.8765 66.5092 68.154 58.2243 63.072 49.7003C61.0991 46.4035 58.9809 43.2432 55.3851 41.4496L54.9409 41.4326Z" fill="#FFEDED"/>
<path d="M61.5603 44.815C68.2279 54.2194 71.5564 65.5847 71.0153 77.1003C70.9641 78.2021 69.2473 78.2021 69.3071 77.1003C69.8414 65.8895 66.596 54.8239 60.0913 45.6776C59.4507 44.8235 60.9454 43.9694 61.5603 44.8235V44.815Z" fill="#FBD8D8"/>
<path d="M72.0229 91.3555C70.2549 106.644 66.8044 121.634 62.7815 136.461C61.8079 140.057 60.8 143.644 59.8093 147.223C59.7492 147.441 59.6048 147.627 59.4077 147.739C59.2107 147.851 58.9773 147.881 58.7587 147.821C58.5401 147.761 58.3543 147.616 58.2422 147.419C58.1301 147.222 58.1008 146.989 58.1608 146.77C61.9701 133.027 65.7624 119.276 68.2649 105.226C69.0906 100.625 69.7738 96.0019 70.3147 91.3555C70.4428 90.2794 72.151 90.2623 72.0229 91.3555Z" fill="#BDE2DB"/>
<path d="M44.4015 82.5496L16.9334 125.255C14.3085 129.321 11.6921 133.389 9.08422 137.46C8.48635 138.383 7.00876 137.529 7.60663 136.606L35.0747 93.9007L42.9239 81.6871C43.5218 80.7646 44.9994 81.6273 44.4015 82.5412V82.5496Z" fill="#BDE2DB"/>
<path d="M163.601 200.339C135.722 201.697 117.197 157.514 111.816 127.621C107.084 101.365 100.311 80.8838 107.229 73.5214C110.697 69.8317 107.819 78.4155 120.895 74.3755C127.916 69.8317 150.703 105.363 153.821 110.803C157.425 114.553 180.7 106.823 182.374 112.58C191.965 145.745 204.094 198.358 163.601 200.339Z" fill="#DDF8F3"/>
<path d="M120.818 41.4326C122.911 42.4148 122.33 44.1231 121.911 45.9252C123.029 44.9641 124.246 44.1251 125.541 43.4226C126.635 42.97 128.215 42.6454 129.112 43.1323C129.821 43.5166 129.855 45.2078 130.111 46.3352C130.147 46.6509 130.118 46.9707 130.025 47.2747C131.187 47.1722 132.75 46.5658 133.339 47.0868C134.194 47.8384 134.356 49.3929 134.894 50.8107C137.909 51.2463 138.848 52.8434 136.884 55.773C133.217 61.4142 130.674 67.7104 129.393 74.3157C128.796 77.1343 127.241 78.7485 124.44 79.6709C119.853 81.1827 115.36 82.7885 110.424 82.6518C106.939 82.5493 105.231 80.7386 104.445 77.382C101.883 66.5092 107.605 58.2243 112.696 49.7003C114.66 46.4035 116.778 43.2432 120.383 41.4496L120.818 41.4326Z" fill="#FFEDED"/>
<path d="M115.634 45.6774C109.129 54.8237 105.884 65.8892 106.418 77.1C106.469 78.2018 104.761 78.2018 104.71 77.1C104.166 65.5855 107.492 54.2202 114.156 44.8147C114.788 43.9606 116.274 44.8147 115.634 45.6688V45.6774Z" fill="#FBD8D8"/>
<path d="M105.444 91.3553C107.153 106.49 110.646 121.326 114.626 136.008C115.608 139.604 116.608 143.182 117.607 146.77C117.667 146.988 117.638 147.222 117.526 147.419C117.413 147.616 117.228 147.76 117.009 147.82C116.79 147.88 116.557 147.851 116.36 147.739C116.163 147.627 116.019 147.441 115.958 147.222C112.072 133.224 108.22 119.216 105.709 104.893C104.923 100.4 104.266 95.8877 103.736 91.3553C103.608 90.2705 105.325 90.2791 105.444 91.3553Z" fill="#BDE2DB"/>
<path d="M132.836 81.6864L160.312 124.392C162.926 128.463 165.542 132.531 168.162 136.597C168.751 137.528 167.307 138.382 166.684 137.451C157.528 123.216 148.369 108.981 139.207 94.7456L131.367 82.5319C130.769 81.6095 132.221 80.7469 132.836 81.6778V81.6864Z" fill="#BDE2DB"/>
</g>
<defs>
<clipPath id="clip0_289_473">
<rect width="208.846" height="209" fill="white" transform="matrix(-1 0 0 1 191.846 0)"/>
</clipPath>
</defs>
</svg>
