<svg width="20" height="20" viewBox="0 0 20 20" fill="none" xmlns="http://www.w3.org/2000/svg">
<path d="M17.0669 3.81687L18.75 2.13375L17.8663 1.25L16.1831 2.93312L15.5 2.25C15.3872 2.13147 15.2514 2.03711 15.101 1.97263C14.9506 1.90815 14.7886 1.87491 14.625 1.87491C14.4614 1.87491 14.2994 1.90815 14.149 1.97263C13.9986 2.03711 13.8628 2.13147 13.75 2.25L2.5 13.5V17.5H6.5L17.75 6.25C17.8685 6.13716 17.9629 6.00142 18.0274 5.851C18.0918 5.70059 18.1251 5.53865 18.1251 5.375C18.1251 5.21135 18.0918 5.04941 18.0274 4.899C17.9629 4.74858 17.8685 4.61284 17.75 4.5L17.0669 3.81687ZM6 16.25H3.75V14L14.625 3.125L16.875 5.375L6 16.25Z" fill="#26B7BC"/>
<path d="M5.625 7.24125L10.3663 2.5L11.25 3.38375L6.50875 8.125L5.625 7.24125Z" fill="#26B7BC"/>
</svg>
