<svg width="24" height="23" viewBox="0 0 24 23" fill="none" xmlns="http://www.w3.org/2000/svg">
<path d="M19 10.5323H7.14L10.77 6.45055C10.9397 6.25937 11.0214 6.0129 10.997 5.76535C10.9726 5.5178 10.8442 5.28946 10.64 5.13055C10.4358 4.97165 10.1725 4.8952 9.90808 4.91802C9.64365 4.94085 9.39974 5.06107 9.23 5.25226L4.23 10.8693C4.19636 10.914 4.16628 10.9609 4.14 11.0097C4.14 11.0565 4.14 11.0846 4.07 11.1314C4.02467 11.2387 4.00094 11.353 4 11.4684C4.00094 11.5838 4.02467 11.6981 4.07 11.8054C4.07 11.8523 4.07 11.8803 4.14 11.9271C4.16628 11.976 4.19636 12.0229 4.23 12.0676L9.23 17.6846C9.32402 17.7903 9.44176 17.8753 9.57485 17.9335C9.70793 17.9918 9.85309 18.0218 10 18.0216C10.2337 18.022 10.4601 17.9459 10.64 17.8063C10.7413 17.7277 10.825 17.6312 10.8863 17.5223C10.9477 17.4133 10.9855 17.2942 10.9975 17.1715C11.0096 17.0489 10.9957 16.9253 10.9567 16.8077C10.9176 16.6901 10.8542 16.5809 10.77 16.4863L7.14 12.4046H19C19.2652 12.4046 19.5196 12.306 19.7071 12.1304C19.8946 11.9548 20 11.7167 20 11.4684C20 11.2201 19.8946 10.982 19.7071 10.8065C19.5196 10.6309 19.2652 10.5323 19 10.5323Z" fill="white"/>
</svg>
