<svg width="20" height="21" viewBox="0 0 20 21" fill="none" xmlns="http://www.w3.org/2000/svg">
<g clip-path="url(#clip0_1600_10055)">
<path d="M5.673 0.287109C5.85865 0.287109 6.0367 0.360859 6.16797 0.492135C6.29925 0.62341 6.373 0.801458 6.373 0.987109V2.29611H13.89V0.996109C13.89 0.810458 13.9637 0.63241 14.095 0.501135C14.2263 0.369859 14.4043 0.296109 14.59 0.296109C14.7757 0.296109 14.9537 0.369859 15.085 0.501135C15.2162 0.63241 15.29 0.810458 15.29 0.996109V2.29611H18C18.5303 2.29611 19.0388 2.50669 19.4139 2.88154C19.7889 3.2564 19.9997 3.76485 20 4.29511V18.2881C19.9997 18.8184 19.7889 19.3268 19.4139 19.7017C19.0388 20.0765 18.5303 20.2871 18 20.2871H2C1.46974 20.2871 0.961184 20.0765 0.58614 19.7017C0.211096 19.3268 0.00026513 18.8184 0 18.2881L0 4.29511C0.00026513 3.76485 0.211096 3.2564 0.58614 2.88154C0.961184 2.50669 1.46974 2.29611 2 2.29611H4.973V0.986109C4.97327 0.800631 5.04713 0.62284 5.17838 0.491781C5.30963 0.360722 5.48752 0.287109 5.673 0.287109V0.287109ZM1.4 8.02911V18.2881C1.4 18.3669 1.41552 18.4449 1.44567 18.5177C1.47583 18.5905 1.52002 18.6567 1.57574 18.7124C1.63145 18.7681 1.69759 18.8123 1.77039 18.8424C1.84319 18.8726 1.92121 18.8881 2 18.8881H18C18.0788 18.8881 18.1568 18.8726 18.2296 18.8424C18.3024 18.8123 18.3685 18.7681 18.4243 18.7124C18.48 18.6567 18.5242 18.5905 18.5543 18.5177C18.5845 18.4449 18.6 18.3669 18.6 18.2881V8.04311L1.4 8.02911ZM6.667 14.9061V16.5721H5V14.9061H6.667ZM10.833 14.9061V16.5721H9.167V14.9061H10.833ZM15 14.9061V16.5721H13.333V14.9061H15ZM6.667 10.9291V12.5951H5V10.9291H6.667ZM10.833 10.9291V12.5951H9.167V10.9291H10.833ZM15 10.9291V12.5951H13.333V10.9291H15ZM4.973 3.69511H2C1.92121 3.69511 1.84319 3.71063 1.77039 3.74078C1.69759 3.77093 1.63145 3.81513 1.57574 3.87085C1.52002 3.92656 1.47583 3.9927 1.44567 4.0655C1.41552 4.13829 1.4 4.21632 1.4 4.29511V6.63011L18.6 6.64411V4.29511C18.6 4.21632 18.5845 4.13829 18.5543 4.0655C18.5242 3.9927 18.48 3.92656 18.4243 3.87085C18.3685 3.81513 18.3024 3.77093 18.2296 3.74078C18.1568 3.71063 18.0788 3.69511 18 3.69511H15.29V4.62411C15.29 4.80976 15.2162 4.98781 15.085 5.11908C14.9537 5.25036 14.7757 5.32411 14.59 5.32411C14.4043 5.32411 14.2263 5.25036 14.095 5.11908C13.9637 4.98781 13.89 4.80976 13.89 4.62411V3.69511H6.373V4.61511C6.373 4.80076 6.29925 4.97881 6.16797 5.11008C6.0367 5.24136 5.85865 5.31511 5.673 5.31511C5.48735 5.31511 5.3093 5.24136 5.17803 5.11008C5.04675 4.97881 4.973 4.80076 4.973 4.61511V3.69511Z" fill="#26B7BC"/>
</g>
<defs>
<clipPath id="clip0_1600_10055">
<rect width="20" height="20" fill="white" transform="translate(0 0.287109)"/>
</clipPath>
</defs>
</svg>
