<svg width="14" height="17" viewBox="0 0 14 17" fill="none" xmlns="http://www.w3.org/2000/svg">
<path d="M5.125 7.125V12.125" stroke="#FE868E" stroke-width="1.5" stroke-linecap="round" stroke-linejoin="round"/>
<path d="M8.875 7.125V12.125" stroke="#FE868E" stroke-width="1.5" stroke-linecap="round" stroke-linejoin="round"/>
<path d="M12.625 3.375V15.25C12.625 15.4158 12.5592 15.5747 12.4419 15.6919C12.3247 15.8092 12.1658 15.875 12 15.875H2C1.83424 15.875 1.67527 15.8092 1.55806 15.6919C1.44085 15.5747 1.375 15.4158 1.375 15.25V3.375" stroke="#FE868E" stroke-width="1.5" stroke-linecap="round" stroke-linejoin="round"/>
<path d="M10.125 3.375V2.125C10.125 1.79348 9.9933 1.47554 9.75888 1.24112C9.52446 1.0067 9.20652 0.875 8.875 0.875H5.125C4.79348 0.875 4.47554 1.0067 4.24112 1.24112C4.0067 1.47554 3.875 1.79348 3.875 2.125V3.375" stroke="#FE868E" stroke-width="1.5" stroke-linecap="round" stroke-linejoin="round"/>
</svg>
