<svg width="17" height="17" viewBox="0 0 17 17" fill="none" xmlns="http://www.w3.org/2000/svg">
<path d="M15.0669 2.81687L16.75 1.13375L15.8663 0.25L14.1831 1.93312L13.5 1.25C13.3872 1.13147 13.2514 1.03711 13.101 0.972632C12.9506 0.908154 12.7886 0.874906 12.625 0.874906C12.4614 0.874906 12.2994 0.908154 12.149 0.972632C11.9986 1.03711 11.8628 1.13147 11.75 1.25L0.5 12.5V16.5H4.5L15.75 5.25C15.8685 5.13716 15.9629 5.00142 16.0274 4.851C16.0918 4.70059 16.1251 4.53865 16.1251 4.375C16.1251 4.21135 16.0918 4.04941 16.0274 3.899C15.9629 3.74858 15.8685 3.61284 15.75 3.5L15.0669 2.81687ZM4 15.25H1.75V13L12.625 2.125L14.875 4.375L4 15.25Z" fill="#26B7BC"/>
<path d="M3.625 6.24125L8.36625 1.5L9.25 2.38375L4.50875 7.125L3.625 6.24125Z" fill="#26B7BC"/>
</svg>
